<svg id="Layer_1" data-name="Layer 1" xmlns="http://www.w3.org/2000/svg" xmlns:xlink="http://www.w3.org/1999/xlink" viewBox="0 0 842 316.21"><defs><linearGradient id="linear-gradient" x1="768.16" y1="239.58" x2="781.24" y2="133.69" gradientUnits="userSpaceOnUse"><stop offset="0" stop-color="#75b643" stop-opacity="0.9"/><stop offset="0.57" stop-color="#6db145" stop-opacity="0.94"/><stop offset="1" stop-color="#60a849"/></linearGradient><linearGradient id="linear-gradient-2" x1="723.37" y1="-18.67" x2="814" y2="224.98" xlink:href="#linear-gradient"/></defs><title>dart</title><g id="Layer_7" data-name="Layer 7"><path d="M841.66,167.56C836.12,269.5,693.83,316.21,693.83,316.21L764.14,213.6l5.34,20.81s24.1-24.59,21.77-60.12l-.09-.13.07-.1,41.06-59.93.12-.16h0l.07-.1q.39,1,.75,2C840.06,134.46,842.52,151.68,841.66,167.56Z" transform="translate(0 0)" fill="url(#linear-gradient)"/><path d="M841.66,167.56c-2.48,31.86-17.58,54.07-17.58,54.07l-32.83-47.34-.09-.13.07-.1c-1.67-24.31-15.73-53.71-58.29-83.85L670.38,0c100.26,32.79,144.71,75.11,162,114h0l.82,1.9A109.33,109.33,0,0,1,841.66,167.56Z" transform="translate(0 0)" fill="url(#linear-gradient-2)"/><path d="M769.48,234.41l-5.34-20.81L732.34,89.78l.6.43c42.56,30.14,56.62,59.54,58.29,83.85l-.07.1.09.13C793.58,209.82,769.48,234.41,769.48,234.41Z" transform="translate(0 0)" fill="none"/><path d="M791.25,174.29l-.09-.13.07-.1A1.64,1.64,0,0,1,791.25,174.29Z" transform="translate(0 0)" fill="none"/></g><g id="Layer_6" data-name="Layer 6"><text transform="translate(0 243.92)" font-size="221.23" fill="#05386b" font-family="DesignSystemCW01-500R" font-weight="500" style="isolation:isolate">Dart</text></g></svg>